<svg viewBox="0 0 96 96" xmlns="http://www.w3.org/2000/svg" xmlns:xlink="http://www.w3.org/1999/xlink" id="Icons_Programmer" overflow="hidden"><circle cx="48" cy="30" r="16"/><path d="M77 57.91C76.7272 55.8269 75.6945 53.918 74.1 52.55 69.8277 49.6245 65.0452 47.525 60 46.36 59.43 46.23 58.83 46.12 58.23 46.01 52.0286 49.9836 44.0814 49.9836 37.88 46.01L36.08 46.34C31.0301 47.5754 26.2325 49.6764 21.9 52.55 20.12 53.69 19.38 55.81 19 57.91L16 75.1C15.8205 76.5508 16.4215 77.9884 17.58 78.88L24.43 83.4 24.43 61.75C24.4299 59.2426 26.4625 57.21 28.9699 57.2099 28.9799 57.2099 28.99 57.2099 29 57.21L67 57.21C69.5074 57.21 71.54 59.2426 71.54 61.75L71.54 82.85 78.76 78.32C79.6148 77.7428 80.0895 76.7475 80 75.72Z"/><path d="M69.57 86.67 69.57 61.75C69.5701 60.3472 68.433 59.2099 67.0302 59.2098 67.0201 59.2098 67.0101 59.2099 67 59.21L29 59.21C27.5972 59.21 26.46 60.3472 26.46 61.75L26.46 86.67 18.81 86.67 18.81 87.94C18.8155 89.3405 19.9495 90.4745 21.35 90.48L74.65 90.48C76.0505 90.4745 77.1845 89.3405 77.19 87.94L77.19 86.67ZM42.82 78.32 41.41 79.73 35.8 74.12 41.41 68.51 42.82 69.92 38.63 74.12ZM46.55 80.43 44.7 79.66 49.39 68.34 51.23 69.11ZM54.55 79.73 53.14 78.32 57.33 74.12 53.14 69.92 54.55 68.51 60.16 74.12Z"/></svg>