<?xml version="1.0" encoding="UTF-8" standalone="no"?>
<!-- Created with Inkscape (http://www.inkscape.org/) -->

<svg
   version="1.1"
   id="svg129"
   xml:space="preserve"
   width="1440"
   height="333.33334"
   viewBox="0 0 1440 333.33334"
   sodipodi:docname="litium_logotyp_rgb.svg"
   inkscape:version="1.1.1 (3bf5ae0d25, 2021-09-20)"
   xmlns:inkscape="http://www.inkscape.org/namespaces/inkscape"
   xmlns:sodipodi="http://sodipodi.sourceforge.net/DTD/sodipodi-0.dtd"
   xmlns="http://www.w3.org/2000/svg"
   xmlns:svg="http://www.w3.org/2000/svg"><defs
     id="defs133"><clipPath
       clipPathUnits="userSpaceOnUse"
       id="clipPath143"><path
         d="M 0,250 H 1080 V 0 H 0 Z"
         id="path141" /></clipPath></defs><sodipodi:namedview
     id="namedview131"
     pagecolor="#ffffff"
     bordercolor="#666666"
     borderopacity="1.0"
     inkscape:pageshadow="2"
     inkscape:pageopacity="0.0"
     inkscape:pagecheckerboard="0"
     showgrid="false"
     inkscape:zoom="0.78958333"
     inkscape:cx="720"
     inkscape:cy="166.54354"
     inkscape:window-width="3440"
     inkscape:window-height="1377"
     inkscape:window-x="-8"
     inkscape:window-y="359"
     inkscape:window-maximized="1"
     inkscape:current-layer="g135" /><g
     id="g135"
     inkscape:groupmode="layer"
     inkscape:label="Litium2020-Logo-RGB"
     transform="matrix(1.3333333,0,0,-1.3333333,0,333.33333)"><g
       id="g137"><g
         id="g139"
         clip-path="url(#clipPath143)"><g
           id="g145"
           transform="translate(31.616,143.1503)"><path
             d="m 0,0 c 0,41.556 33.7,75.245 75.271,75.245 39.125,0 71.268,-29.845 74.916,-68.001 -2.343,0.22 -4.713,0.346 -7.114,0.346 -41.639,0 -75.395,-33.744 -75.395,-75.37 0,-2.4 0.123,-4.769 0.344,-7.111 C 29.854,-71.243 0,-39.111 0,0 m 93.427,106.85 c -69.06,0 -125.043,-55.965 -125.043,-125 0,-69.036 55.983,-125 125.043,-125 69.059,0 125.043,55.964 125.043,125 0,69.035 -55.984,125 -125.043,125"
             style="fill:#00a7ff;fill-opacity:1;fill-rule:evenodd;stroke:none"
             id="path147" /></g><g
           id="g149"
           transform="translate(341.5145,197.2645)"><path
             d="m 0,0 h 38.271 v -134.138 h 82.919 v -31.173 H 0 Z"
             style="fill:#00a7ff;fill-opacity:1;fill-rule:nonzero;stroke:none"
             id="path151" /></g><path
           d="m 481.604,159.007 h 36.853 V 31.954 h -36.853 z m -4.489,38.258 c 0,11.571 9.214,20.546 22.916,20.546 13.701,0 22.915,-8.502 22.915,-19.838 0,-12.28 -9.214,-21.254 -22.915,-21.254 -13.702,0 -22.916,8.974 -22.916,20.546"
           style="fill:#00a7ff;fill-opacity:1;fill-rule:nonzero;stroke:none"
           id="path153" /><g
           id="g155"
           transform="translate(634.6863,38.0946)"><path
             d="m 0,0 c -7.56,-5.432 -18.662,-8.029 -30.002,-8.029 -30.002,0 -47.484,15.349 -47.484,45.578 V 89.74 h -19.608 v 28.339 h 19.608 v 30.937 h 36.853 V 118.079 H -8.977 V 89.74 H -40.633 V 38.021 c 0,-10.864 5.905,-16.767 15.828,-16.767 5.434,0 10.867,1.653 14.884,4.723 z"
             style="fill:#00a7ff;fill-opacity:1;fill-rule:nonzero;stroke:none"
             id="path157" /></g><path
           d="m 650.752,159.007 h 36.854 V 31.954 h -36.854 z m -4.489,38.258 c 0,11.571 9.213,20.546 22.916,20.546 13.702,0 22.915,-8.502 22.915,-19.838 0,-12.28 -9.213,-21.254 -22.915,-21.254 -13.703,0 -22.916,8.974 -22.916,20.546"
           style="fill:#00a7ff;fill-opacity:1;fill-rule:nonzero;stroke:none"
           id="path159" /><g
           id="g161"
           transform="translate(840.452,159.0072)"><path
             d="m 0,0 v -127.053 h -34.964 v 15.114 c -9.685,-11.1 -23.86,-17.003 -39.452,-17.003 -31.893,0 -54.335,17.948 -54.335,57.15 V 0 h 36.854 v -66.361 c 0,-21.254 9.45,-30.7 25.75,-30.7 17.009,0 29.293,10.863 29.293,34.243 l 0,62.818 z"
             style="fill:#00a7ff;fill-opacity:1;fill-rule:nonzero;stroke:none"
             id="path163" /></g><g
           id="g165"
           transform="translate(1079.9999,104.6913)"><path
             d="m 0,0 v -72.737 h -36.854 v 67.068 c 0,20.547 -9.212,29.993 -24.096,29.993 -16.537,0 -28.113,-10.628 -28.113,-33.299 v -63.762 h -36.853 v 67.068 c 0,20.547 -8.741,29.993 -24.097,29.993 -16.3,0 -27.875,-10.628 -27.875,-33.299 v -63.762 h -36.854 V 54.316 h 35.2 V 39.674 c 9.45,10.864 23.624,16.531 39.925,16.531 17.718,0 32.837,-6.849 41.813,-20.782 10.159,12.989 26.696,20.782 45.831,20.782 C -21.734,56.205 0,38.729 0,0"
             style="fill:#00a7ff;fill-opacity:1;fill-rule:nonzero;stroke:none"
             id="path167" /></g></g></g></g></svg>
