<svg id="Layer_1" data-name="Layer 1" xmlns="http://www.w3.org/2000/svg" viewBox="0 0 1035.35 198.43"><title>litium_logotyp_rgb2</title><path d="M89.11,151.64A68.66,68.66,0,1,1,155.47,100a40.53,40.53,0,0,0-56.94,37,39.92,39.92,0,0,0,2.41,13.61A68.84,68.84,0,0,1,89.11,151.64ZM101.22,0C46.26,0,1.71,44.42,1.71,99.21s44.55,99.22,99.51,99.22S200.75,154,200.75,99.21,156.19,0,101.22,0Z" transform="translate(-1.71 0)" style="fill:#1494f6;fill-rule:evenodd"/><polygon points="908.85 160.92 936.14 160.92 936.14 78.87 971.38 132.36 972.1 132.36 1007.71 78.33 1007.71 160.92 1035.35 160.92 1035.35 34.42 1005.35 34.42 972.1 87.91 938.85 34.42 908.85 34.42 908.85 160.92" style="fill:#343433;fill-rule:evenodd"/><path d="M799.48,162.9c34,0,55.47-18.79,55.47-57.1V34.42H827.12v72.46c0,20.06-10.3,30.36-27.29,30.36S772.55,126.58,772.55,106V34.42H744.72v72.29C744.72,143.93,765.5,162.9,799.48,162.9Z" transform="translate(-1.71 0)" style="fill:#343433;fill-rule:evenodd"/><rect x="654.31" y="34.42" width="27.83" height="126.5" style="fill:#343433"/><polygon points="534.16 160.92 561.99 160.92 561.99 60.08 600.48 60.08 600.48 34.42 495.67 34.42 495.67 60.08 534.16 60.08 534.16 160.92" style="fill:#343433;fill-rule:evenodd"/><rect x="414.02" y="34.42" width="27.83" height="126.5" style="fill:#343433"/><polygon points="269.65 160.92 360.55 160.92 360.55 135.62 297.48 135.62 297.48 34.42 269.65 34.42 269.65 160.92" style="fill:#343433;fill-rule:evenodd"/></svg>